<svg xmlns="http://www.w3.org/2000/svg" version="1.0" width="205.000000pt" height="150.000000pt" viewBox="0 0 205.000000 150.000000"><g transform="translate(0.000000,150.000000) scale(0.100000,-0.100000)" fill="#ba2020"><path d="M925 1300 c-302 -65 -502 -344 -457 -637 24 -156 128 -315 256 -392 110 -66 178 -85 306 -85 99 0 124 4 182 26 156 59 263 154 330 293 174 363 -82 784 -487 800 -49 2 -108 0 -130 -5z m-257 -425 c66 -31 74 -31 137 0 63 31 89 31 147 0 26 -14 56 -25 68 -25 12 0 42 11 68 25 58 31 84 31 147 0 63 -31 71 -31 137 0 66 31 78 31 77 3 0 -18 -13 -29 -57 -51 -71 -34 -111 -34 -168 -1 -50 30 -86 28 -134 -6 -39 -28 -96 -26 -145 5 -22 13 -51 24 -65 24 -14 0 -43 -11 -65 -24 -52 -32 -97 -32 -167 2 -44 22 -57 33 -57 51 -1 28 11 28 77 -3z m294 -116 c48 -24 69 -24 121 2 53 28 105 28 157 0 51 -26 86 -27 125 -1 40 26 85 27 85 1 0 -12 -9 -23 -22 -27 -13 -3 -35 -15 -51 -26 -37 -26 -107 -26 -145 1 -49 35 -77 36 -128 6 -61 -36 -107 -36 -168 0 -51 30 -79 29 -128 -7 -16 -11 -45 -20 -64 -21 -45 -1 -153 52 -154 76 0 24 47 22 85 -3 37 -24 76 -25 118 -3 70 36 101 36 169 2z m-292 -109 c22 -11 51 -20 65 -20 14 0 43 9 65 20 22 11 56 20 77 20 22 0 56 -9 78 -20 22 -11 52 -20 67 -20 16 0 45 9 65 20 21 11 55 20 76 20 21 0 55 -9 77 -20 49 -25 81 -25 130 0 51 26 80 26 80 1 0 -14 -18 -28 -63 -50 -35 -17 -73 -31 -85 -31 -12 0 -48 14 -81 31 -65 34 -54 35 -146 -15 -38 -20 -72 -20 -110 0 -92 50 -81 49 -146 15 -33 -17 -69 -31 -82 -31 -36 0 -147 62 -147 82 0 24 31 23 80 -2z"/></g></svg>