<svg xmlns="http://www.w3.org/2000/svg" id="hot-spring" width="16" height="16" viewBox="0 0 20 20"><g><path d="M0,0 H20 V20 H0 Z" fill="none"/><path d="M19.5,10c0,5.247-4.253,9.5-9.5,9.5S.5,15.247,.5,10,4.753,.5,10,.5s9.5,4.253,9.5,9.5Z" fill="hsl(340, 10%, 50%)" stroke="#FFF" stroke-linejoin="round" stroke-miterlimit="4px" stroke-width="1.2"/><path d="M14.4 11.200000000000001c0.5599999999999999 2.0928-2.7792000000000003 2.4000000000000004-4.4 2.4000000000000004S5.04 13.2128 5.6 11.200000000000001c-0.5064000000000001 0.2528-0.8 0.768-0.8 1.2000000000000002 0 1.2152 2.3280000000000003 2.32 5.2 2.32s5.2-1.1048 5.2-2.32c0-0.43200000000000005-0.2936-0.9472-0.8-1.2000000000000002z" fill="#FFF" stroke="#FFF" stroke-linejoin="round" stroke-miterlimit="4px" stroke-width="2"/><path d="M9.682 8.76c-0.504-0.725-0.78-1.122-0.63-2.377 0.14-1.156 0.679-1.615 1.198-2.059 0.404-0.344 0.797-0.68 0.981-1.324 0.301 0.722-0.036 1.47-0.349 2.164-0.311 0.691-0.598 1.33-0.211 1.836 0.971 1.271 1.963 2.88 0.971 4.586-0.214 0.393-0.539 0.681-0.861 0.968-0.423 0.375-0.842 0.747-1.004 1.347-0.269-0.677 0.008-1.365 0.284-2.051 0.306-0.76 0.61-1.516 0.173-2.251-0.203-0.34-0.39-0.607-0.552-0.84z m3.371-1.175a2.639 2.639 0 0 1 0.368-1.808c0.367-0.45 0.701-0.643 0.992-0.81 0.344-0.199 0.627-0.362 0.83-0.877 0.288 0.684-0.001 1.188-0.305 1.718-0.119 0.207-0.24 0.418-0.33 0.645-0.19 0.61 0.102 0.893 0.467 1.247 0.359 0.346 0.787 0.76 0.9 1.616A2.372 2.372 0 0 1 15.601 11c-0.356 0.436-0.68 0.655-0.965 0.846-0.356 0.24-0.648 0.437-0.856 0.965-0.292-0.688 0.031-1.259 0.353-1.828 0.123-0.217 0.246-0.434 0.335-0.657 0.072-0.558-0.234-0.867-0.582-1.218-0.357-0.36-0.757-0.762-0.834-1.523z m-8.018 0c-0.098-0.632 0.005-1.3 0.368-1.808 0.376-0.528 0.73-0.717 1.035-0.881 0.323-0.173 0.595-0.319 0.786-0.806 0.289 0.683-0.014 1.208-0.325 1.75-0.122 0.212-0.246 0.426-0.336 0.654-0.152 0.385 0.13 1.015 0.5 1.243 1.002 0.8 1.228 2.286 0.548 3.353-0.366 0.448-0.704 0.648-1 0.823-0.352 0.209-0.644 0.382-0.848 0.898-0.278-0.656 0.008-1.18 0.3-1.714 0.13-0.239 0.262-0.48 0.345-0.737 0.179-0.556-0.135-0.884-0.51-1.276-0.35-0.365-0.752-0.786-0.863-1.499z" fill="hsl(340, 10%, 50%)"/><path d="M16 12c0.7 2.616-3.474 3-5.5 3S4.3 14.516 5 12c-0.633 0.316-1 0.96-1 1.5 0 1.519 2.91 2.9 6.5 2.9s6.5-1.381 6.5-2.9c0-0.54-0.367-1.184-1-1.5z" fill="hsl(340, 10%, 50%)"/></g></svg>