<svg xmlns="http://www.w3.org/2000/svg" width="500px" height="500px" viewBox="0 0 500 375"><g id="surface1"><path style="stroke:none;fill-rule:nonzero;fill:rgb(78.039216%,69.019608%,38.039216%);fill-opacity:1" d="M 378.859375 187.296875 C 378.859375 258.574219 321.074219 316.359375 249.796875 316.359375 C 178.519531 316.359375 120.734375 258.574219 120.734375 187.296875 C 120.734375 116.019531 178.519531 58.234375 249.796875 58.234375 C 321.074219 58.234375 378.859375 116.019531 378.859375 187.296875 Z M 378.859375 187.296875"/><path style="fill-rule:nonzero;fill:rgb(0%,50.196078%,0%);fill-opacity:0.501961;stroke-width:4;stroke-linecap:square;stroke-linejoin:miter;stroke:rgb(0%,0%,0%);stroke-opacity:1;stroke-dasharray:15,15;stroke-miterlimit:4" d="M 0 0 L 200 100 L 170 200 Z M 0 0" transform="matrix(0.78125,0,0,0.78125,-142.1875,360.9375)"/><path style="stroke:none;fill-rule:nonzero;fill:rgb(13.72549%,12.156863%,12.54902%);fill-opacity:1" d="M 515.625 -53.652344 C 514.660156 -54.359375 513.253906 -56.46875 513.253906 -56.46875 C 513.253906 -56.46875 513.800781 -56.15625 516.304688 -55.53125 C 518.808594 -54.90625 522.121094 -56.050781 524.207031 -57.070312 C 526.292969 -58.085938 529.761719 -58.191406 531.589844 -58.113281 C 533.414062 -58.035156 535.265625 -57.644531 535.003906 -56.523438 C 534.742188 -55.398438 530.519531 -53.445312 530.519531 -53.445312 C 530.519531 -53.445312 530.832031 -53.183594 531.484375 -53.183594 C 532.136719 -53.183594 536.230469 -54.28125 536.59375 -56.445312 C 536.960938 -58.609375 535.1875 -62.988281 534.039062 -63.484375 C 532.890625 -63.980469 530.78125 -63.484375 530.78125 -63.484375 C 533.933594 -62.363281 534.640625 -58.660156 534.640625 -58.660156 C 532.605469 -59.835938 527.390625 -59.625 524.78125 -58.269531 C 522.175781 -56.914062 518.234375 -56.183594 516.902344 -56.3125 C 515.574219 -56.445312 514.113281 -57.121094 514.113281 -57.121094 C 515.550781 -57.097656 516.644531 -59.207031 516.644531 -59.207031 C 516.644531 -59.207031 515.027344 -57.433594 512.316406 -58.867188 C 509.605469 -60.304688 510.984375 -65.257812 510.984375 -65.257812 C 510.984375 -65.257812 508.6875 -60.644531 510.203125 -57.589844 C 511.714844 -54.539062 515.625 -53.652344 515.625 -53.652344 Z M 544.921875 -70.101562 C 544.921875 -70.101562 543.53125 -74.03125 542.734375 -76.777344 L 541.515625 -70.207031 L 542.800781 -68.953125 C 542.800781 -68.953125 542.800781 -69.441406 542.28125 -70.273438 C 541.757812 -71.109375 544.542969 -70.414062 544.921875 -70.101562 Z M 564.761719 -34.433594 C 564.957031 -34.261719 565.113281 -34.128906 565.226562 -34.027344 C 565.074219 -34.160156 564.898438 -34.3125 564.761719 -34.433594 Z M 617.113281 -8.691406 C 617.042969 -12.933594 614.054688 -11.75 614.054688 -10.570312 C 614.054688 -10.570312 605.152344 -9.316406 603.832031 -15.785156 C 603.832031 -15.785156 606.613281 -20.027344 605.152344 -25.519531 C 604.703125 -27.210938 603.832031 -29.691406 602.308594 -32.242188 C 610.984375 -30.585938 619.265625 -36.210938 617.183594 -44.367188 C 614.574219 -54.589844 601.847656 -51.773438 598.09375 -51.671875 C 594.335938 -51.566406 587.554688 -53.234375 591.832031 -60.746094 C 596.109375 -68.257812 605.914062 -65.335938 605.914062 -65.335938 C 604.246094 -64.816406 602.261719 -61.582031 602.261719 -61.582031 C 609.878906 -66.902344 619.6875 -58.035156 619.6875 -58.035156 C 617.265625 -68.71875 601.597656 -69.46875 596.214844 -67.90625 C 592.867188 -68.199219 592.121094 -70.554688 593.816406 -73.089844 C 595.625 -75.804688 602.019531 -84.007812 602.019531 -84.007812 C 602.019531 -84.007812 600.421875 -82.410156 597.152344 -80.878906 C 593.882812 -79.347656 592.214844 -82.621094 593.746094 -86.234375 C 595.277344 -89.847656 600.144531 -99.171875 600.144531 -99.171875 C 598.613281 -96.664062 580.949219 -74.757812 583.171875 -78.304688 C 585.398438 -81.855469 587.277344 -87.625 587.277344 -87.625 C 585.050781 -82.203125 569.75 -67.875 563.28125 -60.851562 C 556.816406 -53.824219 558.761719 -45.550781 560.152344 -43.671875 C 560.488281 -43.21875 560.625 -42.914062 560.636719 -42.710938 C 556.835938 -45.09375 557.605469 -53.597656 560.433594 -58.070312 C 563.421875 -62.796875 574.828125 -73.855469 574.828125 -73.855469 L 574.828125 -74.898438 C 574.828125 -74.898438 575.175781 -76.082031 574.757812 -75.246094 C 574.339844 -74.414062 571.90625 -74.273438 572.113281 -75.941406 C 572.324219 -77.609375 571.835938 -82.621094 571.835938 -82.621094 C 571.835938 -82.621094 570.933594 -78.097656 569.683594 -78.238281 C 568.429688 -78.378906 567.734375 -80.324219 567.804688 -82.480469 C 567.871094 -84.636719 566.898438 -90.0625 566.898438 -90.0625 C 566.273438 -80.882812 560.433594 -83.800781 560.433594 -87.140625 C 560.433594 -90.476562 556.886719 -97.15625 556.886719 -97.15625 C 556.886719 -97.15625 558.761719 -85.886719 555.839844 -85.886719 C 552.921875 -85.886719 550.417969 -89.851562 548.125 -93.609375 C 545.828125 -97.363281 538.109375 -101.953125 538.109375 -101.953125 C 548.597656 -89.382812 551.902344 -76.867188 552.480469 -67.179688 C 551.082031 -66.847656 550.210938 -65.441406 550.210938 -65.441406 C 550.488281 -67.664062 549.722656 -71.492188 549.238281 -73.160156 C 548.75 -74.832031 548.332031 -80.324219 548.332031 -80.324219 C 548.332031 -78.238281 547.566406 -76.21875 546.730469 -73.230469 C 545.898438 -70.238281 546.105469 -68.5 546.105469 -68.5 C 545.269531 -70.242188 542.769531 -70.171875 542.769531 -70.171875 C 543.8125 -68.777344 542.90625 -68.222656 542.90625 -68.222656 C 542.90625 -68.222656 542.90625 -68.222656 541.792969 -69.472656 C 540.683594 -70.726562 539.082031 -70.238281 539.152344 -69.265625 C 539.21875 -68.292969 539.152344 -67.734375 536.925781 -67.734375 C 534.703125 -67.734375 532.335938 -70.445312 529.832031 -70.171875 C 527.328125 -69.890625 525.519531 -68.5 525.382812 -64.953125 C 525.242188 -61.40625 526.839844 -60.851562 526.839844 -60.851562 C 526.214844 -61.195312 526.144531 -61.683594 526.144531 -63.5625 C 526.144531 -65.441406 528.09375 -64.675781 528.09375 -64.675781 C 528.023438 -61.128906 530.179688 -61.199219 530.179688 -61.199219 C 529.414062 -63.285156 529.625 -64.46875 532.960938 -64.328125 C 536.300781 -64.191406 537.203125 -58.765625 537.273438 -57.234375 C 537.34375 -55.703125 536.367188 -54.871094 535.1875 -54.175781 C 534.003906 -53.480469 532.890625 -52.433594 530.945312 -52.574219 C 528.996094 -52.714844 529.625 -56.46875 529.625 -56.46875 C 527.257812 -54.9375 528.300781 -52.015625 528.300781 -52.015625 C 526.839844 -52.15625 526.5625 -54.382812 526.5625 -54.382812 C 525.867188 -53.0625 525.9375 -50.976562 526.421875 -50.140625 C 526.910156 -49.304688 526.007812 -47.359375 526.007812 -47.359375 C 526.007812 -47.359375 527.257812 -47.707031 527.257812 -48.332031 C 527.257812 -48.960938 528.09375 -49.792969 528.09375 -49.792969 C 528.09375 -49.792969 527.8125 -48.542969 528.023438 -47.707031 C 528.230469 -46.871094 526.839844 -46.453125 526.839844 -46.453125 C 529.136719 -45.691406 531.015625 -48.402344 531.988281 -49.722656 C 532.609375 -50.566406 535.953125 -52.695312 538.304688 -54.136719 L 538.472656 -53.863281 C 540.507812 -54.175781 542.332031 -54.90625 542.070312 -53.394531 C 541.8125 -51.878906 541.394531 -51.308594 538.785156 -49.949219 C 536.328125 -48.671875 531.328125 -44.847656 529.96875 -39.261719 L 529.96875 -39.308594 C 529.875 -39.140625 529.648438 -38.40625 529.417969 -37.300781 C 528.761719 -37.378906 527.230469 -37.066406 525.3125 -33.378906 C 522.738281 -28.441406 524.546875 -26.285156 525.449219 -25.453125 C 525.839844 -25.09375 526.34375 -24.539062 526.792969 -24.027344 C 525.921875 -24.773438 524.441406 -25.613281 522.042969 -25.867188 C 517.453125 -26.355469 514.53125 -26.355469 513.210938 -27.957031 C 511.886719 -29.554688 509.941406 -30.113281 508.6875 -29.066406 C 507.4375 -28.023438 504.03125 -26.355469 502.429688 -26.355469 C 500.828125 -26.355469 498.257812 -27.261719 496.449219 -28.09375 C 494.640625 -28.929688 493.667969 -26.914062 493.667969 -26.914062 C 493.667969 -26.914062 492.902344 -27.050781 491.164062 -27.050781 C 489.425781 -27.050781 488.449219 -25.382812 488.449219 -25.382812 C 488.449219 -25.382812 484.765625 -24.476562 484.765625 -22.253906 C 484.765625 -20.027344 486.714844 -19.886719 486.714844 -19.886719 C 486.714844 -19.886719 484.488281 -22.253906 489.078125 -23.785156 C 489.078125 -23.785156 490.328125 -22.808594 492.066406 -22.808594 C 493.804688 -22.808594 494.222656 -22.808594 494.222656 -22.808594 C 494.222656 -22.808594 493.390625 -21.765625 493.53125 -21 C 493.667969 -20.234375 491.027344 -19.125 492.066406 -16.550781 C 492.066406 -16.550781 493.597656 -19.402344 494.503906 -18.914062 C 495.40625 -18.425781 496.660156 -18.84375 497.351562 -19.472656 C 498.050781 -20.097656 501.386719 -21.488281 503.613281 -21.417969 C 503.734375 -21.414062 503.84375 -21.410156 503.941406 -21.40625 C 504.175781 -21.058594 505.285156 -19.644531 508.203125 -19.402344 C 511.542969 -19.125 511.125 -17.386719 510.011719 -16.691406 C 508.898438 -15.992188 507.855469 -15.785156 507.855469 -15.785156 C 507.855469 -15.785156 511.75 -15.4375 512.308594 -17.316406 C 512.863281 -19.191406 512.65625 -23.015625 509.734375 -22.53125 C 506.8125 -22.042969 506.394531 -22.253906 506.046875 -22.878906 C 505.699219 -23.503906 506.046875 -23.714844 508.203125 -23.921875 C 510.359375 -24.128906 512.585938 -24.199219 514.601562 -22.320312 C 516.621094 -20.445312 523.089844 -16.757812 526.980469 -16.757812 C 530.875 -16.757812 531.988281 -16.203125 531.988281 -16.203125 C 531.988281 -16.203125 531.867188 -19.042969 532.699219 -19.003906 C 533.222656 -18.460938 533.800781 -17.957031 534.457031 -17.503906 C 536.5625 -16.109375 537.660156 -15.550781 538.226562 -15.339844 C 537.503906 -14.539062 536.734375 -13.488281 536.128906 -12.132812 C 534.507812 -8.535156 528.773438 -2.222656 527.625 -1.386719 C 526.476562 -0.554688 524.859375 -1.023438 524.859375 -1.023438 C 524.859375 -1.023438 525.015625 -0.238281 525.488281 -0.1875 C 525.957031 -0.136719 522.566406 0.488281 521.574219 -0.136719 C 520.585938 -0.761719 518.914062 -1.699219 518.289062 -2.589844 C 517.664062 -3.476562 516.308594 -2.328125 516.203125 -1.597656 C 516.097656 -0.867188 516.097656 -0.867188 516.097656 -0.867188 C 516.097656 -0.867188 514.011719 -1.699219 513.28125 -2.535156 C 512.550781 -3.371094 509.472656 -3.734375 508.640625 -2.484375 C 508.269531 -1.929688 508.25 -1.753906 508.339844 -1.730469 C 507.539062 -1.324219 505.824219 -0.164062 505.824219 2.3125 C 505.824219 5.546875 507.804688 6.332031 507.804688 6.332031 C 507.804688 6.332031 505.71875 3.984375 509.320312 0.699219 C 509.320312 0.699219 509.527344 1.949219 511.5625 2.003906 C 513.59375 2.054688 516.515625 3.308594 516.515625 3.308594 C 516.515625 3.308594 513.023438 2.785156 512.1875 5.863281 C 511.351562 8.9375 514.167969 11.234375 514.167969 11.234375 C 514.167969 11.234375 512.761719 7.324219 515.109375 5.96875 C 515.109375 5.96875 515.785156 7.792969 519.488281 7.792969 C 523.191406 7.792969 524.914062 4.140625 528.617188 4.140625 C 532.320312 4.140625 531.746094 6.488281 534.40625 6.488281 C 537.066406 6.488281 538.007812 4.765625 538.007812 6.070312 C 538.007812 7.378906 537.746094 7.738281 537.746094 7.738281 C 537.746094 7.738281 540.199219 6.90625 539.730469 3.984375 C 539.257812 1.0625 535.972656 1.167969 534.984375 2.003906 C 533.992188 2.835938 531.539062 1.535156 532.53125 0.648438 C 533.523438 -0.238281 534.511719 0.542969 534.511719 0.542969 C 534.511719 0.542969 534.984375 -1.492188 536.546875 -2.429688 C 538.113281 -3.371094 545.464844 -10.722656 547.8125 -12.027344 C 548.75 -12.546875 549.472656 -13.121094 550.007812 -13.632812 C 551.5625 -13.394531 557.109375 -12.652344 558.835938 -13.90625 C 558.835938 -13.90625 564.402344 -13.765625 565.445312 -15.785156 C 565.445312 -15.785156 569.058594 -15.992188 570.171875 -17.59375 C 571.15625 -19.003906 574.03125 -20.25 574.691406 -20.527344 C 574.792969 -19.21875 574.011719 -15.003906 573.234375 -12.757812 C 572.398438 -10.359375 575.425781 -6.847656 576.398438 -5.003906 C 577.371094 -3.164062 576.882812 -2.328125 575.910156 -0.96875 C 574.9375 0.386719 571.425781 4.664062 568.261719 4.664062 C 565.097656 4.664062 564.574219 1.152344 563.460938 1.152344 C 562.351562 1.152344 562.035156 3.027344 562.035156 3.027344 C 562.035156 3.027344 559.671875 0.246094 557.863281 0.246094 C 556.058594 0.246094 555.671875 1.046875 555.671875 1.046875 C 549.761719 2.402344 550.910156 8.871094 550.910156 8.871094 C 550.910156 6.746094 553.550781 3.898438 554.351562 3.722656 C 555.152344 3.546875 555.8125 3.410156 556.300781 4.210938 C 556.722656 4.910156 559.269531 4.96875 559.910156 4.976562 C 559.578125 5.007812 558.710938 5.277344 557.445312 7.027344 C 555.8125 9.285156 557.238281 11.824219 557.238281 11.824219 C 557.027344 9.566406 559.742188 9.113281 561.480469 9.25 C 563.21875 9.390625 567.289062 8.976562 567.84375 8.488281 C 568.402344 8 570.105469 7.757812 570.765625 8.523438 C 571.425781 9.285156 575.980469 8.867188 578.136719 9.425781 C 580.292969 9.984375 578.972656 12.449219 578.972656 12.449219 C 578.972656 12.449219 582.378906 11.164062 582.378906 8.972656 C 582.378906 6.785156 579.734375 4.070312 578.207031 5.011719 C 576.675781 5.949219 574.378906 6.191406 574.378906 6.191406 C 574.378906 4.351562 581.371094 -2.328125 582.761719 -2.882812 C 584.152344 -3.441406 584.710938 -5.386719 583.597656 -6.050781 C 582.484375 -6.707031 581.789062 -7.890625 581.789062 -11.054688 C 581.789062 -13.871094 585.578125 -17.558594 586.414062 -19.074219 C 588.417969 -14.179688 593.378906 -5.074219 601.195312 -5.074219 C 610.652344 -5.074219 613.292969 -2.570312 613.78125 -0.34375 C 614.265625 1.878906 613.988281 5.078125 611 5.078125 C 608.007812 5.078125 607.242188 2.855469 604.183594 2.855469 C 602.582031 2.714844 602.511719 3.898438 602.511719 3.898438 C 602.511719 3.898438 598.550781 3.269531 597.714844 9.25 C 597.714844 9.25 599.800781 6.820312 602.375 7.167969 C 604.945312 7.515625 604.113281 8.695312 607.101562 8.695312 C 607.101562 8.695312 603.070312 12.101562 607.660156 15.234375 C 607.660156 15.234375 606.546875 12.3125 608.839844 12.3125 C 611.136719 12.3125 609.675781 12.867188 612.25 12.867188 C 614.824219 12.867188 618.371094 8.90625 618.578125 5.773438 C 618.578125 5.773438 620.039062 8.140625 621.011719 8.140625 C 621.007812 8.140625 617.183594 -3.472656 617.113281 -8.691406 Z M 530.804688 -66.625 C 529.902344 -66.625 529.136719 -67.527344 530.667969 -67.667969 C 532.480469 -67.832031 533.796875 -65.71875 533.796875 -65.71875 C 533.796875 -65.71875 531.710938 -66.625 530.804688 -66.625 Z M 603.101562 -48.75 C 605.082031 -48.75 605.292969 -47.082031 605.292969 -47.082031 C 607.691406 -50.730469 613.011719 -46.871094 612.386719 -46.558594 C 611.757812 -46.246094 612.488281 -45.097656 611.757812 -45.097656 C 611.027344 -45.097656 610.820312 -44.160156 610.820312 -44.160156 C 610.820312 -44.160156 612.386719 -44.261719 612.386719 -43.53125 C 612.386719 -42.800781 613.742188 -43.011719 613.742188 -43.011719 C 613.636719 -38.316406 610.714844 -37.480469 610.714844 -37.480469 C 610.714844 -37.480469 610.925781 -39.046875 609.984375 -38.941406 C 609.046875 -38.839844 608.941406 -41.03125 608.941406 -41.03125 C 607.585938 -40.609375 608.835938 -38.734375 607.691406 -38.628906 C 606.542969 -38.527344 606.855469 -36.4375 606.855469 -36.4375 C 606.855469 -36.4375 603.621094 -36.4375 602.058594 -36.648438 C 600.492188 -36.855469 600.179688 -37.898438 600.386719 -38.421875 C 600.597656 -38.941406 599.761719 -39.570312 599.96875 -40.09375 C 600.179688 -40.613281 601.222656 -41.238281 601.222656 -41.238281 C 601.222656 -41.238281 603.414062 -41.136719 601.117188 -41.65625 C 598.824219 -42.175781 598.824219 -40.300781 597.78125 -40.195312 C 596.929688 -40.109375 596.5 -39.203125 596.367188 -38.867188 C 594.96875 -39.882812 593.363281 -40.761719 591.535156 -41.425781 C 591.730469 -42.308594 590.988281 -42.125 590.894531 -43.324219 C 590.789062 -44.683594 592.042969 -45.621094 592.042969 -45.621094 C 590.058594 -45.621094 588.597656 -43.640625 588.597656 -43.640625 C 587.683594 -43.640625 587.21875 -42.917969 587.03125 -42.527344 C 585.003906 -42.804688 582.761719 -42.832031 580.289062 -42.566406 C 582.664062 -44.257812 585.75 -44.507812 585.75 -44.507812 C 585.75 -44.507812 581.644531 -44.996094 583.105469 -48.957031 C 584.066406 -51.566406 586.914062 -53.472656 588.757812 -54.480469 L 588.808594 -54.175781 C 590.894531 -47.707031 601.117188 -48.75 603.101562 -48.75 Z M 560.304688 -41.023438 C 560.332031 -40.683594 560.242188 -40.3125 559.925781 -39.933594 C 560.101562 -40.46875 560.210938 -40.8125 560.304688 -41.023438 Z M 538.457031 -61.824219 C 538.941406 -61.40625 539.707031 -62.3125 541.167969 -61.546875 C 542.628906 -60.78125 544.230469 -61.964844 544.230469 -61.964844 L 541.792969 -64.191406 C 539.847656 -62.9375 538.523438 -65.789062 539.570312 -66.554688 C 540.609375 -67.320312 541.515625 -68.429688 542.488281 -67.457031 C 543.464844 -66.484375 542.28125 -64.675781 542.28125 -64.675781 L 544.4375 -62.730469 C 544.226562 -63.910156 545.898438 -64.605469 545.898438 -64.605469 C 545.898438 -64.605469 546.132812 -64.410156 546.535156 -64 C 546.191406 -64.113281 545.964844 -64.191406 545.964844 -64.191406 C 545.964844 -64.191406 544.574219 -63.84375 545.132812 -62.660156 C 545.6875 -61.476562 542.140625 -60.085938 541.167969 -61.199219 C 540.445312 -62.023438 539.117188 -60.9375 538.566406 -61.636719 C 538.554688 -61.648438 538.464844 -61.765625 538.335938 -61.925781 Z M 538.316406 -54.144531 C 538.617188 -54.328125 538.898438 -54.5 539.160156 -54.65625 C 538.75 -54.269531 538.484375 -54.140625 538.316406 -54.144531 Z M 527.957031 -17.871094 C 521.695312 -18.148438 514.671875 -23.921875 514.671875 -23.921875 C 522.183594 -18.703125 528.71875 -18.566406 528.71875 -18.566406 Z M 538.109375 -32.265625 C 538.109375 -32.265625 536.484375 -30.035156 536.835938 -25.972656 C 536.6875 -20.542969 538.109375 -18.546875 538.109375 -18.546875 C 536.960938 -20.164062 535.761719 -20.425781 535.761719 -20.425781 C 535.761719 -20.425781 536.542969 -19.851562 537.378906 -19.015625 C 537.660156 -18.734375 537.867188 -18.191406 538.023438 -17.59375 C 536.421875 -18.136719 532.316406 -19.9375 530.859375 -24.597656 C 530.859375 -24.597656 531.953125 -22.042969 536.597656 -23.503906 C 536.597656 -23.503906 532.109375 -22.828125 530.753906 -26.527344 C 530.753906 -26.527344 534.5625 -25.539062 536.386719 -26.527344 C 536.386719 -26.527344 531.066406 -26.269531 529.972656 -28.511719 C 528.875 -30.753906 529.398438 -31.433594 529.398438 -31.433594 C 529.398438 -31.433594 531.796875 -28.929688 535.554688 -29.347656 C 535.554688 -29.347656 529.449219 -31.066406 529.710938 -34.40625 C 529.757812 -35.003906 529.800781 -35.457031 529.835938 -35.808594 C 530.742188 -32.335938 535.472656 -32.953125 536.699219 -32.996094 C 536.699219 -32.996094 528.71875 -32.789062 530.753906 -39.828125 C 530.753906 -39.828125 530.910156 -37.480469 535.761719 -37.375 C 535.761719 -37.375 533.414062 -37.585938 532.164062 -39.515625 C 530.910156 -41.445312 531.851562 -42.75 532.839844 -44.15625 C 532.839844 -44.15625 533.414062 -41.445312 536.386719 -40.976562 C 536.386719 -40.976562 534.25 -42.488281 533.78125 -44.15625 C 533.308594 -45.828125 534.980469 -46.402344 534.980469 -46.402344 C 534.980469 -46.402344 535.96875 -43.898438 537.902344 -43.847656 C 537.902344 -43.847656 535.398438 -45.722656 535.761719 -47.183594 C 536.125 -48.644531 537.429688 -48.382812 537.429688 -48.382812 C 537.429688 -48.382812 537.847656 -46.191406 539.308594 -45.984375 C 539.308594 -45.984375 537.167969 -48.125 538.628906 -49.320312 C 540.089844 -50.519531 539.933594 -48.75 541.183594 -48.4375 C 541.183594 -48.4375 539.308594 -50.679688 541.964844 -51.410156 C 544.628906 -52.136719 542.4375 -48.851562 542.4375 -48.851562 C 542.4375 -48.851562 546.714844 -50.9375 546.296875 -54.019531 C 545.972656 -56.414062 542.683594 -56.308594 540.625 -55.53125 L 540.679688 -55.566406 C 539.324219 -56.179688 539.171875 -58.15625 539.152344 -59.472656 C 539.234375 -59.214844 539.289062 -58.988281 539.289062 -58.832031 C 539.289062 -57.722656 540.195312 -56.539062 541.097656 -55.914062 C 541.097656 -55.914062 541.027344 -56.816406 543.042969 -56.539062 C 545.0625 -56.257812 546.9375 -55.355469 546.871094 -53.683594 C 546.800781 -52.015625 545.128906 -48.957031 542 -46.3125 C 539.078125 -43.847656 535.855469 -39.4375 537.761719 -33.71875 C 538 -33.957031 538.265625 -34.171875 538.566406 -34.378906 C 539.40625 -34.953125 540.140625 -35.46875 541.132812 -35.761719 C 541.382812 -35.835938 541.636719 -35.890625 541.902344 -35.941406 L 542.171875 -36.179688 L 542.175781 -36.179688 C 542.175781 -36.179688 543.765625 -36.097656 545.382812 -35.832031 C 540.957031 -36.097656 538.109375 -32.265625 538.109375 -32.265625 Z M 540.460938 -17.265625 L 540.441406 -17.257812 L 540.449219 -17.265625 Z M 546.59375 -14.601562 C 546.175781 -13.210938 537.550781 -4.308594 533.933594 -2.429688 C 530.320312 -0.554688 529.625 1.253906 529.625 1.253906 C 529.625 1.253906 529 -0.484375 532.613281 -2.5 C 536.230469 -4.515625 544.855469 -13.070312 545.339844 -15.4375 C 545.828125 -17.800781 543.949219 -17.59375 543.949219 -17.59375 C 543.949219 -17.59375 546.664062 -18.21875 547.359375 -25.589844 C 547.359375 -25.589844 547.636719 -19.261719 545.621094 -17.734375 C 545.621094 -17.734375 547.011719 -15.992188 546.59375 -14.601562 Z M 546.175781 -39.710938 C 546.175781 -39.710938 544.160156 -39.847656 546.453125 -42.210938 C 548.75 -44.578125 550.210938 -46.664062 550.347656 -46.109375 C 550.488281 -45.550781 551.53125 -45.0625 552.085938 -45.761719 C 552.085938 -45.761719 550.488281 -46.871094 551.878906 -49.097656 C 553.269531 -51.324219 555.910156 -58.277344 553.617188 -61.476562 C 551.320312 -64.675781 553.964844 -64.675781 553.964844 -64.675781 C 553.964844 -64.675781 552.660156 -64.886719 551.882812 -64.503906 L 551.878906 -64.539062 C 551.539062 -65.636719 552.046875 -66.398438 552.5 -66.832031 C 552.53125 -66.25 552.554688 -65.675781 552.566406 -65.121094 C 552.742188 -65.140625 552.933594 -65.152344 553.148438 -65.152344 C 553.628906 -65.152344 554.015625 -65.09375 554.03125 -65.089844 C 554.246094 -65.054688 554.398438 -64.859375 554.378906 -64.644531 C 554.363281 -64.429688 554.183594 -64.261719 553.964844 -64.261719 C 553.957031 -64.261719 553.34375 -64.246094 553.160156 -63.886719 C 553.0625 -63.703125 552.953125 -63.121094 553.957031 -61.722656 C 556.355469 -58.378906 553.730469 -51.277344 552.234375 -48.878906 C 552.023438 -48.539062 551.886719 -48.238281 551.8125 -47.964844 L 552.714844 -47.1875 C 552.714844 -47.1875 555.21875 -46.457031 555.21875 -44.582031 C 555.21875 -43.621094 557.175781 -42.554688 559.09375 -41.738281 C 557.921875 -41.539062 554.777344 -41.347656 552.972656 -41.347656 C 551.097656 -41.34375 549.914062 -39.324219 546.175781 -39.710938 Z M 553.601562 -26.503906 C 552.976562 -28.449219 552.109375 -30.71875 550.824219 -32.535156 C 551.371094 -33.566406 552.292969 -34.6875 553.828125 -35.1875 C 557.027344 -36.230469 558.417969 -33.03125 558.417969 -33.03125 C 558.417969 -33.03125 562.3125 -36.578125 564.539062 -34.632812 C 564.539062 -34.632812 565.511719 -37.902344 569.195312 -37.203125 C 569.195312 -37.203125 568.640625 -37.832031 568.570312 -39.359375 C 568.5 -40.890625 569.472656 -41.726562 571.769531 -41.792969 C 571.769531 -41.792969 569.40625 -44.296875 571.5625 -45.273438 C 573.714844 -46.246094 575.800781 -47.21875 575.800781 -47.21875 C 575.800781 -47.21875 573.785156 -47.636719 573.855469 -49.304688 C 573.925781 -50.976562 575.523438 -53.199219 579.488281 -54.175781 C 579.488281 -54.175781 577.125 -54.941406 577.125 -56.398438 C 577.125 -57.863281 579.628906 -60.433594 581.992188 -61.617188 C 581.992188 -61.617188 578.863281 -61.476562 578.585938 -63.074219 C 578.308594 -64.675781 581.4375 -68.292969 583.523438 -69.195312 C 583.523438 -69.195312 581.296875 -69.960938 581.855469 -72.1875 C 582.394531 -74.351562 586.886719 -78.429688 587.128906 -78.644531 C 586.902344 -78.441406 583.382812 -75.308594 583.382812 -77.195312 C 583.382812 -77.195312 595 -91.523438 596.320312 -92.914062 C 596.320312 -92.914062 592.21875 -86.375 592.355469 -82.6875 C 592.496094 -79.003906 596.320312 -79.070312 598.40625 -80.742188 C 598.40625 -80.742188 594.09375 -74.691406 592.910156 -73.230469 C 591.730469 -71.769531 591.660156 -67.597656 594.789062 -67.457031 C 594.789062 -67.457031 586.234375 -62.3125 589.296875 -55.703125 C 589.296875 -55.703125 582.617188 -52.921875 582.132812 -48.261719 C 581.578125 -45.757812 583.382812 -45.0625 583.382812 -45.0625 C 583.382812 -45.0625 578.726562 -43.324219 577.472656 -40.402344 C 576.222656 -37.484375 577.195312 -34.285156 577.195312 -34.285156 C 577.195312 -34.285156 570.101562 -35.328125 569.753906 -28.929688 C 569.753906 -28.929688 563.007812 -29.832031 562.242188 -26.078125 C 562.242188 -26.078125 557.324219 -30.273438 553.601562 -26.503906 Z M 573.648438 -21.417969 C 572.117188 -20.234375 571.976562 -22.390625 571.976562 -22.390625 C 571.976562 -22.390625 571.003906 -19.714844 569.890625 -18.601562 C 568.777344 -17.488281 567.597656 -18.636719 567.804688 -19.886719 C 567.804688 -19.886719 566.761719 -17.59375 565.164062 -16.894531 C 563.5625 -16.203125 562.101562 -16.828125 562.519531 -18.078125 C 562.519531 -18.078125 561.683594 -16.621094 559.875 -15.714844 C 558.542969 -15.046875 557.703125 -15.667969 557.4375 -16.292969 C 561.691406 -17.304688 566.695312 -20.886719 569.542969 -21.835938 C 571.472656 -22.476562 573.253906 -24.476562 575.152344 -25.933594 C 575.082031 -24.765625 574.796875 -22.304688 573.648438 -21.417969 Z M 575.722656 -24.363281 C 575.632812 -25.167969 575.488281 -25.742188 575.371094 -26.097656 C 576.191406 -26.703125 577.039062 -27.195312 577.929688 -27.421875 C 577.5625 -25.433594 576.328125 -24.636719 575.722656 -24.363281 Z M 578.65625 -26.109375 C 578.773438 -26.519531 578.796875 -27.015625 578.769531 -27.546875 C 579.503906 -27.585938 580.277344 -27.425781 581.089844 -26.980469 C 581.269531 -26.882812 581.433594 -26.777344 581.601562 -26.675781 C 580.535156 -24.109375 578.140625 -24.363281 578.65625 -26.109375 Z M 584.289062 -23.503906 C 583.140625 -24.546875 582.097656 -25.140625 582.027344 -25.832031 C 582.011719 -25.976562 582.070312 -26.144531 582.148438 -26.316406 C 583.453125 -25.410156 584.335938 -24.390625 584.921875 -23.453125 C 585.046875 -23.085938 585.160156 -22.738281 585.257812 -22.417969 C 584.953125 -22.820312 584.621094 -23.199219 584.289062 -23.503906 Z M 614.734375 -5.925781 C 614.679688 -7.59375 614.261719 -6.863281 612.957031 -6.863281 C 611.65625 -6.863281 603.308594 -8.378906 600.023438 -12.234375 C 596.738281 -16.097656 593.398438 -27.15625 591.730469 -31.066406 C 590.058594 -34.980469 581.035156 -35.65625 581.035156 -35.65625 C 581.035156 -35.65625 590.113281 -35.8125 592.5625 -31.171875 C 595.015625 -26.527344 596.789062 -13.957031 602.632812 -10.878906 C 608.472656 -7.800781 613.0625 -8.113281 613.0625 -8.113281 C 613.0625 -8.113281 614.574219 -9.160156 615.148438 -7.230469 C 615.722656 -5.300781 615.566406 -3.316406 615.984375 -1.960938 C 615.984375 -1.964844 614.785156 -4.257812 614.734375 -5.925781 Z M 614.734375 -5.925781"/><path style="stroke:none;fill-rule:nonzero;fill:rgb(100%,100%,100%);fill-opacity:1" d="M 195.425781 159.078125 C 198.871094 155.632812 204.476562 155.632812 207.921875 159.078125 C 217.460938 168.617188 232.980469 168.617188 242.515625 159.078125 C 244.1875 157.410156 246.40625 156.492188 248.765625 156.492188 C 251.125 156.492188 253.34375 157.410156 255.015625 159.078125 C 264.550781 168.617188 280.070312 168.617188 289.609375 159.078125 C 291.277344 157.410156 293.496094 156.492188 295.859375 156.492188 C 298.21875 156.492188 300.4375 157.410156 302.105469 159.078125 C 306.726562 163.699219 312.871094 166.242188 319.402344 166.242188 C 325.9375 166.242188 332.082031 163.699219 336.699219 159.078125 C 339.75 156.027344 339.75 151.082031 336.699219 148.03125 C 333.648438 144.980469 328.703125 144.980469 325.652344 148.03125 C 323.984375 149.699219 321.765625 150.617188 319.402344 150.617188 C 317.042969 150.617188 314.824219 149.699219 313.15625 148.03125 C 308.535156 143.410156 302.390625 140.867188 295.859375 140.867188 C 289.324219 140.867188 283.179688 143.410156 278.5625 148.03125 C 275.117188 151.476562 269.507812 151.476562 266.0625 148.03125 C 261.445312 143.410156 255.300781 140.867188 248.765625 140.867188 C 242.234375 140.867188 236.089844 143.410156 231.46875 148.03125 C 228.023438 151.476562 222.417969 151.476562 218.972656 148.03125 C 209.433594 138.492188 193.914062 138.492188 184.378906 148.03125 C 180.933594 151.476562 175.328125 151.476562 171.878906 148.03125 C 168.828125 144.980469 163.882812 144.980469 160.832031 148.03125 C 157.78125 151.082031 157.78125 156.027344 160.832031 159.078125 C 170.367188 168.617188 185.886719 168.617188 195.425781 159.078125 Z M 325.652344 187.875 C 323.984375 189.542969 321.765625 190.460938 319.402344 190.460938 C 317.042969 190.460938 314.824219 189.542969 313.15625 187.875 C 308.535156 183.253906 302.390625 180.710938 295.859375 180.710938 C 289.324219 180.710938 283.179688 183.253906 278.5625 187.875 C 275.117188 191.320312 269.507812 191.320312 266.0625 187.875 C 261.445312 183.253906 255.300781 180.710938 248.765625 180.710938 C 242.234375 180.710938 236.089844 183.253906 231.46875 187.875 C 228.023438 191.320312 222.417969 191.320312 218.972656 187.875 C 209.433594 178.335938 193.914062 178.335938 184.378906 187.875 C 180.933594 191.320312 175.328125 191.320312 171.878906 187.875 C 168.828125 184.824219 163.882812 184.824219 160.832031 187.875 C 157.78125 190.925781 157.78125 195.871094 160.832031 198.921875 C 170.371094 208.460938 185.886719 208.460938 195.425781 198.921875 C 198.871094 195.476562 204.476562 195.476562 207.921875 198.921875 C 217.460938 208.460938 232.980469 208.460938 242.519531 198.921875 C 244.1875 197.253906 246.40625 196.335938 248.765625 196.335938 C 251.128906 196.335938 253.347656 197.253906 255.015625 198.921875 C 264.554688 208.460938 280.070312 208.460938 289.609375 198.921875 C 291.277344 197.253906 293.5 196.335938 295.859375 196.335938 C 298.21875 196.335938 300.4375 197.253906 302.109375 198.921875 C 306.726562 203.542969 312.871094 206.085938 319.40625 206.085938 C 325.9375 206.085938 332.082031 203.542969 336.703125 198.921875 C 339.753906 195.871094 339.753906 190.925781 336.703125 187.875 C 333.648438 184.824219 328.703125 184.824219 325.652344 187.875 Z M 325.652344 227.71875 C 323.984375 229.386719 321.765625 230.304688 319.402344 230.304688 C 317.042969 230.304688 314.824219 229.386719 313.15625 227.71875 C 308.535156 223.097656 302.390625 220.554688 295.859375 220.554688 C 289.324219 220.554688 283.179688 223.097656 278.5625 227.71875 C 275.117188 231.164062 269.507812 231.164062 266.0625 227.71875 C 261.445312 223.097656 255.300781 220.554688 248.765625 220.554688 C 242.234375 220.554688 236.089844 223.097656 231.46875 227.71875 C 228.023438 231.164062 222.417969 231.164062 218.972656 227.71875 C 209.433594 218.179688 193.914062 218.179688 184.378906 227.71875 C 180.933594 231.164062 175.328125 231.164062 171.878906 227.71875 C 168.828125 224.667969 163.882812 224.667969 160.832031 227.71875 C 157.78125 230.769531 157.78125 235.714844 160.832031 238.765625 C 170.371094 248.304688 185.886719 248.304688 195.425781 238.765625 C 198.871094 235.320312 204.476562 235.320312 207.921875 238.765625 C 217.460938 248.304688 232.980469 248.304688 242.519531 238.765625 C 244.1875 237.097656 246.40625 236.179688 248.765625 236.179688 C 251.128906 236.179688 253.347656 237.097656 255.015625 238.765625 C 264.554688 248.304688 280.070312 248.304688 289.609375 238.765625 C 291.277344 237.097656 293.5 236.179688 295.859375 236.179688 C 298.21875 236.179688 300.4375 237.097656 302.109375 238.765625 C 306.726562 243.386719 312.871094 245.929688 319.40625 245.929688 C 325.9375 245.929688 332.082031 243.386719 336.703125 238.765625 C 339.753906 235.714844 339.753906 230.769531 336.703125 227.71875 C 333.648438 224.667969 328.703125 224.667969 325.652344 227.71875 Z M 325.652344 227.71875"/></g></svg>