<svg version="1.1" id="Capa_1" xmlns="http://www.w3.org/2000/svg" x="0px" y="0px" viewBox="0 0 297.502 297.502" style="enable-background:new 0 0 297.502 297.502" xml:space="preserve"><g id="XMLID_26_"><g><path style="fill:#7AC1A3" d="M272.259,236.711h-9.02c-6.52-40.15-17.04-70.11-27.9-92.04c4.88-15.13,14.36-27.8,23.01-36.95 C255.879,138.741,255.149,192.051,272.259,236.711z"/><path style="fill:#7AC1A3" d="M243.199,236.711h-42.21c2.85-20.78,7.9-65.73,4.58-104.23c0.98,1.45,1.97,2.98,2.96,4.58 C219.879,155.271,234.729,186.981,243.199,236.711z"/><path style="fill:#7AC1A3" d="M181.769,108.951c0,0,8.4,21.05,4.19,78.95c-1.49,20.55-3.54,38.76-4.95,48.81h-28.08 C155.289,179.531,169.349,136.461,181.769,108.951z"/><path style="fill:#7AC1A3" d="M32.599,236.711h-9.68c1.81-8.35,3.75-20.18,4.25-33.98 C29.869,212.521,31.899,223.841,32.599,236.711z"/><path style="fill:#7AC1A3" d="M81.659,236.711h-27.21c2.99-19.73,7.83-61.75,4.17-109.48c0.04,0.08,0.08,0.16,0.12,0.24 C68.629,149.241,80.309,185.441,81.659,236.711z"/><path style="fill:#7AC1A3" d="M131.629,236.711h-29.05c-4.27-42.19,4.52-84.39,26.18-125.56c2.17-4.13,4.38-8.04,6.57-11.75 C125.089,155.701,129.159,212.941,131.629,236.711z"/><path d="M296.209,242.181c1.53,3.06,1.37,6.7-0.43,9.61c-1.8,2.92-4.98,4.69-8.41,4.69H10.139c-3.18,0-6.16-1.53-8.02-4.1 c-1.86-2.58-2.36-5.89-1.36-8.91c0.15-0.44,15.02-46.54,0-91.59c-1.45-4.35,0.28-9.13,4.18-11.54c3.9-2.41,8.94-1.82,12.19,1.42 c0.84,0.85,12.84,13.13,22.65,36.88c0.95-27.4-0.16-60.4-6.72-93.18c-0.85-4.27,1.19-8.6,5.03-10.65 c3.84-2.06,8.57-1.36,11.65,1.72c1.46,1.46,25.44,26.09,40.26,79.39c5.78-21.44,13.83-39.94,21.6-54.6 c18.82-35.56,39.6-56.53,40.47-57.4c3.33-3.32,8.52-3.85,12.43-1.27c3.92,2.59,5.48,7.57,3.74,11.92 c-10.04,25.1-15.26,53.65-17.72,80.87c5.03-15.74,10.53-29.07,15.66-39.85c15.97-33.62,31.76-50.72,32.43-51.43 c3.51-3.76,9.32-4.2,13.36-1.01c4.03,3.2,4.94,8.95,2.08,13.24c-6.44,9.66-10.03,24.29-11.67,41.35 c5.19,4.91,12.6,13.02,20.63,25.27c15.13-29.09,41.03-46.69,42.57-47.71c3.28-2.19,7.54-2.22,10.85-0.08 c3.31,2.14,5.03,6.04,4.38,9.92C280.649,86.091,265.439,180.651,296.209,242.181z M263.239,236.711h9.02 c-17.11-44.66-16.38-97.97-13.91-128.99c-8.65,9.15-18.13,21.82-23.01,36.95C246.199,166.601,256.719,196.561,263.239,236.711z M200.989,236.711h42.21c-8.47-49.73-23.32-81.44-34.67-99.65c-0.99-1.6-1.98-3.13-2.96-4.58 C208.889,170.981,203.839,215.931,200.989,236.711z M185.959,187.901c4.21-57.9-4.19-78.95-4.19-78.95 c-12.42,27.51-26.48,70.58-28.84,127.76h28.08C182.419,226.661,184.469,208.451,185.959,187.901z M102.579,236.711h29.05 c-2.47-23.77-6.54-81.01,3.7-137.31c-2.19,3.71-4.4,7.62-6.57,11.75C107.099,152.321,98.309,194.521,102.579,236.711z M54.449,236.711h27.21c-1.35-51.27-13.03-87.47-22.92-109.24c-0.04-0.08-0.08-0.16-0.12-0.24 C62.279,174.961,57.439,216.981,54.449,236.711z M22.919,236.711h9.68c-0.7-12.87-2.73-24.19-5.43-33.98 C26.669,216.531,24.729,228.361,22.919,236.711z"/></g></g></svg>