<svg id="SvgjsSvg1001" width="288" height="288" xmlns="http://www.w3.org/2000/svg" version="1.1" xmlns:xlink="http://www.w3.org/1999/xlink" xmlns:svgjs="http://svgjs.com/svgjs"><g id="SvgjsG1008"><svg xmlns="http://www.w3.org/2000/svg" viewBox="0 0 461.941 461.941" width="288" height="288"><path d="M94.42 143.113c8.82-8.82 23.171-8.82 31.993 0 24.416 24.416 64.145 24.416 88.561 0 4.273-4.273 9.954-6.626 15.997-6.626s11.724 2.354 15.997 6.626c24.416 24.416 64.145 24.416 88.561 0 4.273-4.273 9.954-6.626 15.997-6.626s11.724 2.354 15.997 6.626c11.828 11.828 27.554 18.342 44.28 18.342 16.728 0 32.453-6.514 44.281-18.342 7.811-7.811 7.81-20.474-.001-28.284-7.811-7.811-20.474-7.811-28.284 0-4.272 4.273-9.953 6.626-15.996 6.626s-11.724-2.354-15.996-6.625c-11.827-11.828-27.554-18.342-44.28-18.343-.002 0 0 0-.001 0-16.726 0-32.453 6.515-44.281 18.342-8.82 8.821-23.174 8.819-31.992.001-11.827-11.828-27.554-18.342-44.28-18.343-.002 0 0 0-.001 0-16.726 0-32.453 6.515-44.281 18.342-8.82 8.821-23.174 8.82-31.992 0-24.417-24.417-64.146-24.417-88.562 0-8.82 8.82-23.172 8.82-31.994 0-7.811-7.811-20.474-7.811-28.284 0s-7.81 20.474.001 28.284C30.274 167.529 70.002 167.529 94.42 143.113zM427.799 216.829c-4.272 4.273-9.953 6.626-15.996 6.626s-11.724-2.354-15.996-6.625c-11.827-11.828-27.554-18.342-44.28-18.343-.002 0 0 0-.001 0-16.726 0-32.453 6.515-44.281 18.342-8.82 8.821-23.174 8.819-31.992.001-11.827-11.828-27.554-18.342-44.28-18.343-.002 0 0 0-.001 0-16.726 0-32.453 6.515-44.281 18.342-8.82 8.821-23.174 8.82-31.992 0-24.417-24.417-64.146-24.417-88.562 0-8.82 8.82-23.172 8.82-31.994 0-7.811-7.811-20.474-7.811-28.284 0s-7.81 20.474.001 28.284c24.416 24.416 64.144 24.416 88.562 0 8.82-8.82 23.171-8.82 31.993 0 24.416 24.416 64.145 24.416 88.561 0 4.273-4.273 9.954-6.626 15.997-6.626s11.724 2.354 15.997 6.626c24.416 24.416 64.145 24.416 88.561 0 4.273-4.273 9.954-6.626 15.997-6.626s11.724 2.354 15.997 6.626c11.828 11.828 27.554 18.342 44.28 18.342 16.728 0 32.453-6.514 44.281-18.342 7.811-7.811 7.81-20.474-.001-28.284C448.272 209.018 435.609 209.018 427.799 216.829zM427.799 318.829c-4.272 4.273-9.953 6.626-15.996 6.626s-11.724-2.354-15.996-6.625c-11.827-11.828-27.554-18.342-44.28-18.343-.002 0 0 0-.001 0-16.726 0-32.453 6.515-44.281 18.342-8.82 8.821-23.174 8.819-31.992.001-11.827-11.828-27.554-18.342-44.28-18.343-.002 0 0 0-.001 0-16.726 0-32.453 6.515-44.281 18.342-8.82 8.82-23.174 8.821-31.992 0-24.417-24.417-64.146-24.417-88.562 0-8.82 8.82-23.172 8.82-31.994 0-7.811-7.811-20.474-7.811-28.284 0s-7.81 20.474.001 28.284c24.416 24.416 64.144 24.416 88.562 0 8.82-8.82 23.171-8.82 31.993 0 24.416 24.416 64.145 24.416 88.561 0 4.273-4.273 9.954-6.626 15.997-6.626s11.724 2.354 15.997 6.626c24.416 24.416 64.145 24.416 88.561 0 4.273-4.273 9.954-6.626 15.997-6.626s11.724 2.354 15.997 6.626c11.828 11.828 27.554 18.342 44.28 18.342 16.728 0 32.453-6.514 44.281-18.342 7.811-7.811 7.81-20.474-.001-28.284C448.272 311.018 435.609 311.018 427.799 318.829z" fill="#fff" class="color000 svgShape"/></svg></g></svg>